The House (1997) opens to the image of a mansion as the narrator reads a confessional letter written to his mother about their inability to communicate with each other. The house and mother are, of course, metaphors for the motherland that would be explored in the two hours that follow. It seems to me that The House is the film that Bartas finally comes to terms with the trauma dealt by the country’s recent past that he has consistently expressed in his work. Consequently, the film also seems like a summation of the director’s previous films (One could say that the characters from Bartas’ previous films reprise their roles here) and a melting pot of all the Tarkovsky influences that have characterized his work (especially the last four fictional works of the Russian). Shot almost entirely indoors, The House follows a young man carrying a pile of books as me moves from one room of the Marienbad-like mansion to the other, meeting various men and women, none of whom speak to each other and who might be real people of flesh and blood, shards of memory or figments of fantasy. The house itself might be an abstract space, as in The Corridor, representing the protagonist’s mind with its spatial configuration disoriented like the chessboard in the film. Furthermore, one also gets the feeling that Bartas is attempting to resolve the question of theory versus practice – cold cynicism versus warm optimism – with regards to his politics as we witness the protagonist finally burn the books, page by page, he had so far held tightly to his chest.

   General
      Complete name : A Casa.avi
      Format : AVI
      Format/Info : Audio Video Interleave
      File size : 1.49 GiB
      Duration : 1h 58mn
      Overall bit rate : 1 795 Kbps
      Writing application : FairUse Wizard - http://fairusewizard.com
      Writing library : The best and REALLY easy backup tool
   Video #0
      ID : 0
      Format : MPEG-4 Visual
      Format profile : AdvancedSimple@L5
      Format settings, BVOP : Yes
      Format settings, QPel : No
      Format settings, GMC : No warppoints
      Format settings, Matrix : Default (MPEG)
      Muxing mode : Packed bitstream
      Codec ID : XVID
      Codec ID/Hint : XviD
      Duration : 1h 58mn
      Bit rate : 1 529 Kbps
      Width : 656 pixels
      Height : 480 pixels
      Display aspect ratio : 4:3
      Frame rate : 25.000 fps
      Resolution : 24 bits
      Colorimetry : 4:2:0
      Scan type : Progressive
      Bits/(Pixel*Frame) : 0.194
      Stream size : 1.27 GiB (85%)
      Writing library : XviD 1.2.0.dev47 (UTC 2006-11-01)
   Audio #1
      ID : 1
      Format : AC-3
      Format/Info : Audio Coding 3
      Codec ID : 2000
      Duration : 1h 58mn
      Bit rate mode : Constant
      Bit rate : 256 Kbps
      Channel(s) : 2 channels
      Channel positions : L R
      Sampling rate : 48.0 KHz
      Stream size : 217 MiB (14%)
      Alignment : Split accross interleaves
      Interleave, duration : 40 ms (1.00 video frame)
      Interleave, preload duration : 500 ms
 
http://www.imdb.com/title/tt0118823/

French audio (almost none); English and Portuguese subtitles

My rip of the French DVD